<mxfile host="Electron" modified="2024-08-19T20:38:53.058Z" agent="Mozilla/5.0 (Windows NT 10.0; Win64; x64) AppleWebKit/537.36 (KHTML, like Gecko) draw.io/22.1.2 Chrome/114.0.5735.289 Electron/25.9.4 Safari/537.36" etag="8TL3r5YipIe8S80ag4eF" version="22.1.2" type="device">
  <diagram name="Page-1" id="A_Ga3F7VtrZm307qVq_N">
    <mxGraphModel dx="1050" dy="669" grid="1" gridSize="10" guides="1" tooltips="1" connect="1" arrows="1" fold="1" page="1" pageScale="1" pageWidth="1920" pageHeight="1200" math="0" shadow="0">
      <root>
        <mxCell id="0" />
        <mxCell id="1" parent="0" />
        <mxCell id="i9iWYjeStY8LAAndmr4J-1" value="" style="endArrow=none;dashed=1;html=1;dashPattern=1 3;strokeWidth=2;rounded=0;" edge="1" parent="1">
          <mxGeometry width="50" height="50" relative="1" as="geometry">
            <mxPoint x="280" y="320" as="sourcePoint" />
            <mxPoint x="1470" y="320" as="targetPoint" />
          </mxGeometry>
        </mxCell>
        <mxCell id="i9iWYjeStY8LAAndmr4J-2" value="Client" style="text;html=1;align=center;verticalAlign=middle;resizable=0;points=[];autosize=1;strokeColor=none;fillColor=none;" vertex="1" parent="1">
          <mxGeometry x="230" y="270" width="50" height="30" as="geometry" />
        </mxCell>
        <mxCell id="i9iWYjeStY8LAAndmr4J-3" value="Engine" style="text;html=1;align=center;verticalAlign=middle;resizable=0;points=[];autosize=1;strokeColor=none;fillColor=none;" vertex="1" parent="1">
          <mxGeometry x="225" y="340" width="60" height="30" as="geometry" />
        </mxCell>
        <mxCell id="i9iWYjeStY8LAAndmr4J-5" value="Game Object" style="rounded=1;whiteSpace=wrap;html=1;" vertex="1" parent="1">
          <mxGeometry x="300" y="60" width="120" height="60" as="geometry" />
        </mxCell>
        <mxCell id="i9iWYjeStY8LAAndmr4J-7" style="edgeStyle=orthogonalEdgeStyle;rounded=0;orthogonalLoop=1;jettySize=auto;html=1;entryX=0.5;entryY=1;entryDx=0;entryDy=0;endArrow=diamondThin;endFill=1;endSize=12;" edge="1" parent="1" source="i9iWYjeStY8LAAndmr4J-6" target="i9iWYjeStY8LAAndmr4J-5">
          <mxGeometry relative="1" as="geometry" />
        </mxCell>
        <mxCell id="i9iWYjeStY8LAAndmr4J-6" value="Component" style="rounded=1;whiteSpace=wrap;html=1;" vertex="1" parent="1">
          <mxGeometry x="300" y="180" width="120" height="60" as="geometry" />
        </mxCell>
        <mxCell id="i9iWYjeStY8LAAndmr4J-10" style="edgeStyle=orthogonalEdgeStyle;rounded=0;orthogonalLoop=1;jettySize=auto;html=1;entryX=0.5;entryY=1;entryDx=0;entryDy=0;endArrow=diamondThin;endFill=1;startSize=10;endSize=13;" edge="1" parent="1" source="i9iWYjeStY8LAAndmr4J-8" target="i9iWYjeStY8LAAndmr4J-6">
          <mxGeometry relative="1" as="geometry" />
        </mxCell>
        <mxCell id="i9iWYjeStY8LAAndmr4J-8" value="Engine Component" style="rounded=0;whiteSpace=wrap;html=1;" vertex="1" parent="1">
          <mxGeometry x="300" y="410" width="120" height="60" as="geometry" />
        </mxCell>
        <mxCell id="i9iWYjeStY8LAAndmr4J-11" value="Game Object" style="rounded=1;whiteSpace=wrap;html=1;" vertex="1" parent="1">
          <mxGeometry x="620" y="60" width="120" height="60" as="geometry" />
        </mxCell>
        <mxCell id="i9iWYjeStY8LAAndmr4J-18" style="edgeStyle=orthogonalEdgeStyle;rounded=0;orthogonalLoop=1;jettySize=auto;html=1;entryX=0.5;entryY=1;entryDx=0;entryDy=0;" edge="1" parent="1" source="i9iWYjeStY8LAAndmr4J-12" target="i9iWYjeStY8LAAndmr4J-11">
          <mxGeometry relative="1" as="geometry" />
        </mxCell>
        <mxCell id="i9iWYjeStY8LAAndmr4J-12" value="Sprite Sheet Component" style="rounded=1;whiteSpace=wrap;html=1;" vertex="1" parent="1">
          <mxGeometry x="620" y="180" width="120" height="60" as="geometry" />
        </mxCell>
        <mxCell id="i9iWYjeStY8LAAndmr4J-19" style="edgeStyle=orthogonalEdgeStyle;rounded=0;orthogonalLoop=1;jettySize=auto;html=1;entryX=0.5;entryY=1;entryDx=0;entryDy=0;" edge="1" parent="1" source="i9iWYjeStY8LAAndmr4J-15" target="i9iWYjeStY8LAAndmr4J-12">
          <mxGeometry relative="1" as="geometry">
            <Array as="points">
              <mxPoint x="680" y="400" />
              <mxPoint x="680" y="400" />
            </Array>
          </mxGeometry>
        </mxCell>
        <mxCell id="i9iWYjeStY8LAAndmr4J-15" value="Texture2D" style="rounded=0;whiteSpace=wrap;html=1;" vertex="1" parent="1">
          <mxGeometry x="620" y="410" width="120" height="60" as="geometry" />
        </mxCell>
        <mxCell id="i9iWYjeStY8LAAndmr4J-22" style="edgeStyle=orthogonalEdgeStyle;rounded=0;orthogonalLoop=1;jettySize=auto;html=1;entryX=0.5;entryY=1;entryDx=0;entryDy=0;" edge="1" parent="1" source="i9iWYjeStY8LAAndmr4J-21" target="i9iWYjeStY8LAAndmr4J-15">
          <mxGeometry relative="1" as="geometry" />
        </mxCell>
        <mxCell id="i9iWYjeStY8LAAndmr4J-21" value="Texture Reference Pool" style="rounded=0;whiteSpace=wrap;html=1;" vertex="1" parent="1">
          <mxGeometry x="620" y="530" width="120" height="60" as="geometry" />
        </mxCell>
        <mxCell id="i9iWYjeStY8LAAndmr4J-24" style="edgeStyle=orthogonalEdgeStyle;rounded=0;orthogonalLoop=1;jettySize=auto;html=1;entryX=0.5;entryY=1;entryDx=0;entryDy=0;" edge="1" parent="1" source="i9iWYjeStY8LAAndmr4J-23" target="i9iWYjeStY8LAAndmr4J-21">
          <mxGeometry relative="1" as="geometry" />
        </mxCell>
        <mxCell id="i9iWYjeStY8LAAndmr4J-23" value="Native Gfx API Buffer" style="rounded=0;whiteSpace=wrap;html=1;" vertex="1" parent="1">
          <mxGeometry x="620" y="650" width="120" height="60" as="geometry" />
        </mxCell>
        <mxCell id="i9iWYjeStY8LAAndmr4J-25" value="Game Object" style="rounded=1;whiteSpace=wrap;html=1;" vertex="1" parent="1">
          <mxGeometry x="940" y="60" width="120" height="60" as="geometry" />
        </mxCell>
        <mxCell id="i9iWYjeStY8LAAndmr4J-28" style="edgeStyle=orthogonalEdgeStyle;rounded=0;orthogonalLoop=1;jettySize=auto;html=1;entryX=0.5;entryY=1;entryDx=0;entryDy=0;" edge="1" parent="1" source="i9iWYjeStY8LAAndmr4J-26" target="i9iWYjeStY8LAAndmr4J-25">
          <mxGeometry relative="1" as="geometry" />
        </mxCell>
        <mxCell id="i9iWYjeStY8LAAndmr4J-26" value="Script" style="rounded=1;whiteSpace=wrap;html=1;" vertex="1" parent="1">
          <mxGeometry x="860" y="180" width="120" height="60" as="geometry" />
        </mxCell>
        <mxCell id="i9iWYjeStY8LAAndmr4J-29" style="edgeStyle=orthogonalEdgeStyle;rounded=0;orthogonalLoop=1;jettySize=auto;html=1;entryX=0.5;entryY=1;entryDx=0;entryDy=0;" edge="1" parent="1" source="i9iWYjeStY8LAAndmr4J-27" target="i9iWYjeStY8LAAndmr4J-25">
          <mxGeometry relative="1" as="geometry" />
        </mxCell>
        <mxCell id="i9iWYjeStY8LAAndmr4J-27" value="AudioPlayer" style="rounded=1;whiteSpace=wrap;html=1;" vertex="1" parent="1">
          <mxGeometry x="1020" y="180" width="120" height="60" as="geometry" />
        </mxCell>
        <mxCell id="i9iWYjeStY8LAAndmr4J-36" style="edgeStyle=orthogonalEdgeStyle;rounded=0;orthogonalLoop=1;jettySize=auto;html=1;" edge="1" parent="1" source="i9iWYjeStY8LAAndmr4J-30" target="i9iWYjeStY8LAAndmr4J-26">
          <mxGeometry relative="1" as="geometry" />
        </mxCell>
        <mxCell id="i9iWYjeStY8LAAndmr4J-30" value="VM Executor" style="rounded=0;whiteSpace=wrap;html=1;" vertex="1" parent="1">
          <mxGeometry x="860" y="410" width="120" height="60" as="geometry" />
        </mxCell>
        <mxCell id="i9iWYjeStY8LAAndmr4J-35" style="edgeStyle=orthogonalEdgeStyle;rounded=0;orthogonalLoop=1;jettySize=auto;html=1;entryX=0.5;entryY=1;entryDx=0;entryDy=0;" edge="1" parent="1" source="i9iWYjeStY8LAAndmr4J-31" target="i9iWYjeStY8LAAndmr4J-27">
          <mxGeometry relative="1" as="geometry" />
        </mxCell>
        <mxCell id="i9iWYjeStY8LAAndmr4J-31" value="Audio Component" style="rounded=0;whiteSpace=wrap;html=1;" vertex="1" parent="1">
          <mxGeometry x="1020" y="410" width="120" height="60" as="geometry" />
        </mxCell>
        <mxCell id="i9iWYjeStY8LAAndmr4J-34" style="edgeStyle=orthogonalEdgeStyle;rounded=0;orthogonalLoop=1;jettySize=auto;html=1;entryX=0.5;entryY=1;entryDx=0;entryDy=0;" edge="1" parent="1" source="i9iWYjeStY8LAAndmr4J-32" target="i9iWYjeStY8LAAndmr4J-31">
          <mxGeometry relative="1" as="geometry" />
        </mxCell>
        <mxCell id="i9iWYjeStY8LAAndmr4J-32" value="WASAPI/ALSA" style="rounded=0;whiteSpace=wrap;html=1;" vertex="1" parent="1">
          <mxGeometry x="1020" y="650" width="120" height="60" as="geometry" />
        </mxCell>
        <mxCell id="i9iWYjeStY8LAAndmr4J-38" style="edgeStyle=orthogonalEdgeStyle;rounded=0;orthogonalLoop=1;jettySize=auto;html=1;entryX=0.5;entryY=1;entryDx=0;entryDy=0;" edge="1" parent="1" source="i9iWYjeStY8LAAndmr4J-37" target="i9iWYjeStY8LAAndmr4J-30">
          <mxGeometry relative="1" as="geometry" />
        </mxCell>
        <mxCell id="i9iWYjeStY8LAAndmr4J-37" value="Machine Code" style="rounded=0;whiteSpace=wrap;html=1;" vertex="1" parent="1">
          <mxGeometry x="860" y="650" width="120" height="60" as="geometry" />
        </mxCell>
        <mxCell id="i9iWYjeStY8LAAndmr4J-39" value="" style="endArrow=none;dashed=1;html=1;dashPattern=1 3;strokeWidth=2;rounded=0;" edge="1" parent="1">
          <mxGeometry width="50" height="50" relative="1" as="geometry">
            <mxPoint x="280" y="620" as="sourcePoint" />
            <mxPoint x="1470" y="620" as="targetPoint" />
          </mxGeometry>
        </mxCell>
        <mxCell id="i9iWYjeStY8LAAndmr4J-40" value="Engine" style="text;html=1;align=center;verticalAlign=middle;resizable=0;points=[];autosize=1;strokeColor=none;fillColor=none;" vertex="1" parent="1">
          <mxGeometry x="220" y="570" width="60" height="30" as="geometry" />
        </mxCell>
        <mxCell id="i9iWYjeStY8LAAndmr4J-41" value="Native Layer" style="text;html=1;align=center;verticalAlign=middle;resizable=0;points=[];autosize=1;strokeColor=none;fillColor=none;" vertex="1" parent="1">
          <mxGeometry x="210" y="640" width="90" height="30" as="geometry" />
        </mxCell>
      </root>
    </mxGraphModel>
  </diagram>
</mxfile>
